<?xml version="1.0" encoding="UTF-8"?>
<svg width="160px" height="24px" viewBox="0 0 160 24" version="1.1" xmlns="http://www.w3.org/2000/svg" xmlns:xlink="http://www.w3.org/1999/xlink">
    <!-- Generator: Sketch 58 (84663) - https://sketch.com -->
    <title>logo</title>
    <desc>Created with Sketch.</desc>
    <defs>
        <linearGradient x1="-84.3914815%" y1="50.0109836%" x2="100%" y2="50.0109836%" id="linearGradient-1">
            <stop stop-color="#0C88C8" offset="0%"></stop>
            <stop stop-color="#3023AE" offset="100%"></stop>
        </linearGradient>
        <path d="M93.7521499,8.43264865 L94.023419,8.4388505 C95.1891417,8.49218578 96.3148533,8.88828742 97.2625856,9.5790392 L97.495731,9.75783784 L96.5061678,11.5005405 L96.3385923,11.3485232 C95.6581859,10.7650375 94.805647,10.4256637 93.915097,10.3832054 L93.6713781,10.379027 L93.5043601,10.3829645 C92.7429227,10.4195837 92.2376127,10.7098006 92.1736222,11.1769908 L92.1667323,11.2797838 L92.1744671,11.3758939 C92.2510257,11.8391721 92.889252,12.0804235 93.7913885,12.2796223 L93.9886344,12.3217297 L94.1443392,12.3522211 C95.7176284,12.6621227 97.704662,13.1291706 97.8273152,15.2758293 L97.8332882,15.4888649 L97.8286564,15.6600381 C97.7392125,17.3002049 96.3573461,18.5115626 93.9449072,18.5904973 L93.691679,18.5945946 L93.3986546,18.588794 C91.9377827,18.5309741 90.5487464,18.0436935 89.5953234,17.2526088 L89.4105548,17.0903784 L90.5020547,15.3096216 L90.7201378,15.4883042 C91.5345973,16.121414 92.5087157,16.5105143 93.5311493,16.6109378 L93.8111091,16.6311351 L93.9972528,16.627196 C94.8983293,16.5879728 95.3556624,16.2583529 95.4093092,15.7516649 L95.4146679,15.648 L95.4061472,15.5325026 C95.3215255,14.9769132 94.6154258,14.743407 93.6833745,14.5450232 L93.4940687,14.5057297 L93.3385692,14.4753795 C91.771177,14.168426 89.8556816,13.7412346 89.7337323,11.6903412 L89.7275951,11.4797838 L89.7322798,11.3183028 C89.8196217,9.81812991 91.1253548,8.52537255 93.4033023,8.43800066 L93.6510771,8.4332973 L93.7011816,8.43272973 L93.7521499,8.43264865 Z M122.554227,8.43272973 L122.603899,8.4332973 L122.789808,8.43548356 C124.82715,8.48379832 126.658668,9.34148379 126.767798,11.8597758 L126.772936,12.1007568 L126.772936,18.3530811 L124.26469,18.3530811 L124.26469,17.3524324 L124.127825,17.504133 C123.508315,18.1427792 122.551127,18.5356131 121.486822,18.5884738 L121.239417,18.5945946 L121.081135,18.5908745 C119.647359,18.523798 118.033755,17.5488372 117.924177,15.601356 L117.918268,15.388973 L117.924191,15.1671084 C118.034027,13.1409091 119.651401,12.3556932 121.086437,12.3039496 L121.239417,12.3011892 L121.490611,12.3065186 C122.575701,12.3529134 123.537167,12.7018357 124.140883,13.3379925 L124.26469,13.4787027 L124.26469,12.1420541 L124.259083,12.0039611 C124.188536,11.146873 123.457306,10.5793532 122.355521,10.5219885 L122.168509,10.5171892 L121.929409,10.5247843 C121.056077,10.5788754 120.223627,10.9200595 119.558579,11.496465 L119.381448,11.6594595 L118.431839,9.95805405 C119.496626,9.03433784 120.833039,8.50190118 122.2254,8.43895487 L122.504554,8.43264865 L122.554227,8.43272973 Z M144.802769,8.43243243 L145.077729,8.4382095 C146.781351,8.51062263 147.86327,9.25312985 148.486078,10.0622542 L148.585656,10.1976216 L146.941496,11.7424865 L146.839616,11.602815 C146.417033,11.0653988 145.785724,10.7375522 145.108048,10.7028809 L144.922199,10.7007568 L144.747995,10.7057001 C143.371239,10.7845397 142.406191,11.800289 142.33119,13.3130029 L142.326486,13.5046486 L142.33085,13.68937 C142.403209,15.2072145 143.368995,16.2435553 144.74774,16.324034 L144.922199,16.3290811 L145.106473,16.3251137 C145.778324,16.2847094 146.403574,15.9622492 146.830186,15.4360646 L146.941496,15.2875676 L148.585656,16.8291892 L148.491258,16.9574776 C147.869276,17.7673174 146.786083,18.5159597 145.077729,18.5887993 L144.802769,18.5945946 L144.577256,18.5904658 C141.742169,18.4861301 139.730988,16.4143202 139.730988,13.5076757 C139.730988,10.5243243 141.849413,8.43243243 144.802769,8.43243243 Z M154.824742,8.43243243 L155.047165,8.43690647 C157.766665,8.54700532 159.6,10.6794651 159.6,13.7636757 L159.6,13.7636757 L159.6,14.3260541 L152.505035,14.3260541 L152.529172,14.4776557 C152.746233,15.6310372 153.697635,16.5692973 155.248038,16.5692973 L155.248038,16.5692973 L155.481139,16.5623376 C156.33278,16.5110345 157.146933,16.1775495 157.796671,15.6095135 L157.796671,15.6095135 L158.901345,17.2521081 L158.713914,17.4156606 C157.748095,18.2065456 156.361621,18.5945946 154.97268,18.5945946 L154.97268,18.5945946 L154.751072,18.5906955 C151.962354,18.4921026 149.881459,16.5307443 149.881459,13.5046486 C149.87887,10.6992432 151.925594,8.43243243 154.824742,8.43243243 L154.824742,8.43243243 Z M102.104262,8.64864865 L102.104262,14.5457297 L102.108571,14.7235134 C102.165678,15.8691668 102.786485,16.2902257 103.733933,16.3294675 L103.88621,16.3325405 L104.084835,16.3217008 C104.808792,16.2566737 105.480842,15.9156877 105.962033,15.3692149 L106.088431,15.2151351 L106.088431,8.64864865 L108.631664,8.64864865 L108.631664,18.3435676 L106.088431,18.3435676 L106.088431,17.12 L105.920503,17.2943572 C105.117543,18.0847534 104.049413,18.5472035 102.925177,18.5911774 L102.683487,18.5941622 L102.468164,18.5899748 C100.566051,18.5147813 99.6291077,17.4317505 99.5646093,15.7336729 L99.5610284,15.5424865 L99.5610284,8.64864865 L102.104262,8.64864865 Z M76.0207843,5.18918919 L76.0207843,18.3783784 L73.2129905,18.3783784 L73.2129905,5.18918919 L76.0207843,5.18918919 Z M84.5443746,8.43286486 L84.7603151,8.43772966 C86.6681188,8.51966931 87.614064,9.6266633 87.6791981,11.3399211 L87.6828146,11.5327568 L87.6828146,18.3783784 L85.1391491,18.3783784 L85.1480038,12.515027 L85.1436719,12.3370523 C85.0862623,11.1894678 84.4623109,10.7537328 83.515963,10.7130283 L83.3638961,10.7098378 L83.1773718,10.7179314 C82.4405973,10.775047 81.7575044,11.1274221 81.2829923,11.6943845 L81.1588677,11.8542703 L81.1588677,18.3783784 L78.6121786,18.3783784 L78.6121786,8.68064865 L81.1588677,8.68064865 L81.1588677,9.94010811 C81.9452594,9.04112162 83.0585129,8.50281926 84.2418439,8.43904313 L84.4793683,8.43264865 L84.5443746,8.43286486 Z M116.83843,8.64864865 L116.83843,11.0918919 L116.607049,11.0573213 L116.373892,11.03803 L116.139775,11.0341622 L115.968417,11.0400978 C115.212111,11.0911646 114.293503,11.4668414 113.854653,11.976695 L113.762189,12.0966486 L113.762189,18.3783784 L111.223275,18.3783784 L111.223275,8.86010811 L113.762189,8.86010811 L113.762189,10.1597838 C114.51462,9.23718919 115.638515,8.68497297 116.83843,8.64864865 Z M135.076024,8.43286486 L135.291419,8.43714633 C137.194817,8.51401889 138.149778,9.62082521 138.215562,11.3338889 L138.219215,11.5267027 L138.219215,18.3783784 L135.675982,18.3783784 L135.675982,12.5148108 L135.671673,12.3368643 C135.614566,11.1894584 134.993768,10.7537323 134.046497,10.7130282 L133.89425,10.7098378 L133.708002,10.7181403 C132.972325,10.7759978 132.290263,11.1280853 131.815915,11.6945305 L131.691813,11.8542703 L131.691813,18.3783784 L129.148579,18.3783784 L129.148579,8.68043243 L131.691813,8.68043243 L131.691813,9.94010811 C132.480634,9.04091892 133.594609,8.50279392 134.778554,8.43904075 L135.016201,8.43264865 L135.076024,8.43286486 Z M122.246905,13.9846486 L122.09263,13.9891308 C121.176904,14.0427815 120.449839,14.5756472 120.449839,15.4566486 C120.449839,16.3351351 121.172423,16.8223096 122.084156,16.8737288 L122.246905,16.8782703 L122.433329,16.8730665 C123.114559,16.8349789 123.763591,16.5886181 124.162316,16.1605749 L124.26469,16.0393514 L124.26469,14.8268108 L124.162316,14.7020464 C123.727343,14.2230443 122.994485,13.9846486 122.246905,13.9846486 Z M154.824742,10.4577297 C153.253362,10.4577297 152.58084,11.6412973 152.464865,12.6008649 L152.464865,12.6008649 L157.173173,12.6008649 L157.162592,12.4842475 C157.058255,11.579869 156.414056,10.4577297 154.824742,10.4577297 Z" id="path-2"></path>
        <linearGradient x1="0%" y1="50%" x2="237.827332%" y2="50%" id="linearGradient-3">
            <stop stop-color="#0C88C8" offset="0%"></stop>
            <stop stop-color="#3023AE" offset="100%"></stop>
        </linearGradient>
        <polygon id="path-4" points="0 24 67.1656839 24 67.1656839 0 0 0"></polygon>
    </defs>
    <g id="Page-1" stroke="none" stroke-width="1" fill="none" fill-rule="evenodd">
        <g id="Stable_UI-Proposal" transform="translate(-135.000000, -32.000000)">
            <g id="logo" transform="translate(135.000000, 32.000000)">
                <g id="insurance">
                    <use fill="url(#linearGradient-1)" xlink:href="#path-2"></use>
                    <use fill="#3023AE" xlink:href="#path-2"></use>
                </g>
                <g id="Fill-6">
                    <use fill="url(#linearGradient-3)" xlink:href="#path-4"></use>
                    <use fill="#3023AE" xlink:href="#path-4"></use>
                </g>
                <path d="M10.6860731,5.18918919 C12.8083859,5.18918919 14.5691691,5.8227027 15.8917543,7.03135135 L14.3221023,9.08843243 C13.2737959,8.15394595 11.9125526,7.63632432 10.5007729,7.63567568 C9.21922165,7.63567568 8.53719621,8.1907027 8.53719621,8.98097297 C8.53719621,9.87308108 9.65720379,10.1433514 11.2002917,10.5065946 C13.4020806,11.0004324 16.1975643,11.6685405 16.1975643,14.5742703 C16.1975643,16.988973 14.4544904,18.8108108 10.8506403,18.8108108 C8.28732179,18.8108108 6.44144736,17.9595676 5.18322057,16.7130811 L6.75287253,14.5917838 C7.86143383,15.7351351 9.39566712,16.3788108 10.9974982,16.372973 C12.5585115,16.372973 13.319797,15.6408649 13.319797,14.888 C13.319797,13.9003243 12.1587556,13.5632432 10.6154517,13.2058378 C8.43439567,12.7117838 5.61839513,12.1191351 5.61839513,9.16994595 C5.61839513,6.97037838 7.54072206,5.18918919 10.6860731,5.18918919 Z M21.0166636,6.27027027 L21.0166636,8.91632432 L22.9830479,8.91632432 L22.9830479,11.1394595 L21.0166636,11.1394595 L21.0166636,15.4998919 C21.0166636,16.0877838 21.3375913,16.5610811 21.8995388,16.5610811 C22.2189548,16.5662703 22.5305959,16.4627027 22.782846,16.267027 L23.3244926,18.1900541 C22.9417981,18.5282162 22.2617164,18.8103784 21.1991562,18.8103784 C19.4124568,18.8311351 18.4496736,17.9107027 18.4496736,16.1876757 L18.4496736,11.1394595 L16.8454668,11.1394595 L16.8454668,8.91632432 L18.4496736,8.91632432 L18.4496736,6.27027027 L21.0166636,6.27027027 Z M29.0899616,8.64951351 C31.2628108,8.64951351 33.2589986,9.53275676 33.2589986,12.3210811 L33.2589986,18.5690811 L30.749456,18.5690811 L30.749456,17.5682162 C30.0965862,18.3487568 28.9709635,18.8108108 27.7233191,18.8108108 C26.2031237,18.8108108 24.4043302,17.7686486 24.4043302,15.6012973 C24.4043302,13.3340541 26.2031237,12.5126486 27.7233191,12.5126486 C28.9882409,12.5126486 30.1168871,12.9130811 30.749456,13.6903784 L30.749456,12.3507027 C30.749456,11.3701622 29.9194928,10.7282162 28.654787,10.7282162 C27.6144714,10.7277838 26.6149737,11.1372973 25.8666463,11.8709189 L24.9179009,10.1744865 C26.0538901,9.18940541 27.4982809,8.64864865 28.9908325,8.64864865 C29.0238755,8.64864865 29.0569185,8.64886486 29.0899616,8.64951351 Z M38.3690062,5.18918919 L38.3690062,10.1197838 C39.0706847,9.18767568 40.1649922,8.64281081 41.3243058,8.64908108 C43.7640909,8.64908108 45.5691475,10.572973 45.5691475,13.7388108 C45.5691475,16.9751351 43.743574,18.8108108 41.3243058,18.8108108 C40.1675838,18.8060541 39.0778116,18.2635676 38.3690062,17.3396757 L38.3690062,18.5608649 L35.8506089,18.5608649 L35.8506089,5.18918919 L38.3690062,5.18918919 Z M56.9871345,8.64864865 C59.8322907,8.64864865 61.7667118,10.8140541 61.7667118,13.9796757 L61.7667118,14.5418378 L54.6758501,14.5418378 C54.8322106,15.7628108 55.8010409,16.7863784 57.4223091,16.7863784 C58.3572325,16.7857297 59.2608406,16.4441081 59.9685662,15.8246486 L61.0764796,17.4661622 C60.1078652,18.3695135 58.6258961,18.8108108 57.143711,18.8108108 C54.2434831,18.8108108 52.0481732,16.8276757 52.0481732,13.7208649 C52.0481732,10.9139459 54.0812915,8.64864865 56.9871345,8.64864865 Z M50.1044655,5.18918919 L50.1044655,18.5945946 L47.5128552,18.5945946 L47.5128552,5.18918919 L50.1044655,5.18918919 Z M28.7331832,14.1967568 C27.743836,14.1967568 26.9341737,14.7385946 26.9341737,15.6691892 C26.9341737,16.5995676 27.743836,17.0940541 28.7331832,17.0940541 C29.5424135,17.0940541 30.3345824,16.8142703 30.749456,16.2521081 L30.749456,15.0389189 C30.3345824,14.4765405 29.5424135,14.1967568 28.7331832,14.1967568 Z M40.5293294,10.9027027 C39.6769055,10.9210811 38.8804173,11.3344865 38.3690062,12.0235676 L38.3690062,15.4657297 C38.8938073,16.1314595 39.687056,16.5236757 40.5293294,16.5336216 C41.9851664,16.5336216 42.9693304,15.4127568 42.9693304,13.7271351 C42.9693304,12.0410811 41.9996363,10.9027027 40.5293294,10.9027027 Z M56.9871345,10.6845405 C55.4267691,10.6728649 54.7540303,11.8555676 54.6352482,12.8294054 L59.3364292,12.8294054 C59.278334,11.9085405 58.646197,10.6845405 56.9871345,10.6845405 Z" id="Stable" fill="#FFFFFF"></path>
            </g>
        </g>
    </g>
</svg>