<svg width="48" height="48" viewBox="0 0 48 48" fill="none" xmlns="http://www.w3.org/2000/svg">
<path d="M24 0.75C11.1562 0.75 0.75 11.1562 0.75 24C0.75 36.8438 11.1562 47.25 24 47.25C36.8438 47.25 47.25 36.8438 47.25 24C47.25 11.1562 36.8438 0.75 24 0.75ZM32.625 30.0938L30.75 32.4375C30.4688 32.8125 30.0938 33.0938 29.5312 33.0938C29.25 33.0938 28.875 32.9062 28.6875 32.7188L22.4062 28.0312C21.4688 27.375 21 26.3438 21 25.125V10.5C21 9.75 21.6562 9 22.5 9H25.5C26.25 9 27 9.75 27 10.5V24L32.4375 28.0312C32.7188 28.3125 33 28.6875 33 29.1562C33 29.5312 32.8125 29.9062 32.625 30.0938Z" fill="#FFAE13"/>
</svg>
