<svg width="54" height="48" viewBox="0 0 54 48" fill="none" xmlns="http://www.w3.org/2000/svg">
<path d="M47.8125 8.71875C48.375 8.90625 48.8438 9 49.5 9C51.9375 9 54 7.03125 54 4.5C54 2.0625 51.9375 0 49.5 0C46.9688 0 45 2.0625 45 4.5C45 4.78125 45 4.96875 45 5.25L36.0938 12.375C35.5312 12.1875 35.0625 12 34.4062 12C33.8438 12 33.375 12.1875 32.8125 12.375L23.9062 5.25C23.9062 4.96875 24 4.78125 24 4.5C24 2.0625 21.9375 0 19.5 0C16.9688 0 15 2.0625 15 4.5C15 4.96875 15 5.34375 15.0938 5.71875L5.625 15.1875C5.25 15.0938 4.875 15 4.5 15C1.96875 15 0 17.0625 0 19.5C0 22.0312 1.96875 24 4.5 24C6.9375 24 9 22.0312 9 19.5C9 19.125 8.90625 18.75 8.8125 18.375L18.2812 8.90625C18.6562 9 19.0312 9 19.5 9C20.0625 9 20.5312 8.90625 21.0938 8.71875L30 15.8438C30 16.125 30 16.3125 30 16.5C30 19.0312 31.9688 21 34.5 21C36.9375 21 39 19.0312 39 16.5C39 16.3125 38.9062 16.125 38.9062 15.8438L47.8125 8.71875ZM37.5 30H31.5C30.6562 30 30 30.75 30 31.5V46.5C30 47.3438 30.6562 48 31.5 48H37.5C38.25 48 39 47.3438 39 46.5V31.5C39 30.75 38.25 30 37.5 30ZM52.5 18H46.5C45.6562 18 45 18.75 45 19.5V46.5C45 47.3438 45.6562 48 46.5 48H52.5C53.25 48 54 47.3438 54 46.5V19.5C54 18.75 53.25 18 52.5 18ZM22.5 18H16.5C15.6562 18 15 18.75 15 19.5V46.5C15 47.3438 15.6562 48 16.5 48H22.5C23.25 48 24 47.3438 24 46.5V19.5C24 18.75 23.25 18 22.5 18ZM7.5 33H1.5C0.65625 33 0 33.75 0 34.5V46.5C0 47.3438 0.65625 48 1.5 48H7.5C8.25 48 9 47.3438 9 46.5V34.5C9 33.75 8.25 33 7.5 33Z" fill="#FFAE13"/>
</svg>
