<svg width="46" height="49" viewBox="0 0 46 49" fill="none" xmlns="http://www.w3.org/2000/svg">
<path d="M42.6875 7.875L24.6875 0.375C24.125 0.1875 23.5625 0.09375 23 0.09375C22.3438 0.09375 21.7812 0.1875 21.2188 0.375L3.21875 7.875C1.53125 8.625 0.5 10.2188 0.5 12C0.5 30.6562 11.1875 43.5 21.2188 47.7188C22.3438 48.1875 23.5625 48.1875 24.6875 47.7188C32.75 44.3438 45.5 32.8125 45.5 12C45.5 10.2188 44.375 8.625 42.6875 7.875ZM38.2812 18.5625L21.0312 35.8125C20.4688 36.4688 19.4375 36.4688 18.875 35.8125L9.125 26.0625C8.5625 25.5 8.5625 24.5625 9.125 24L11.2812 21.8438C11.8438 21.2812 12.7812 21.2812 13.3438 21.8438L20 28.4062L34.0625 14.3438C34.625 13.7812 35.5625 13.7812 36.125 14.3438L38.2812 16.5C38.8438 17.0625 38.8438 18 38.2812 18.5625Z" fill="#FFAE13"/>
</svg>
