<svg width="245" height="278" viewBox="0 0 245 278" fill="none" xmlns="http://www.w3.org/2000/svg">
<mask id="mask0_624_478" style="mask-type:alpha" maskUnits="userSpaceOnUse" x="0" y="32" width="245" height="246">
<circle cx="122.5" cy="154.986" r="122.5" fill="#C4C4C4"/>
</mask>
<g mask="url(#mask0_624_478)">
<g clip-path="url(#clip0_624_478)">
<path d="M774.802 696.311L802.778 213.802C803.624 201.02 800.185 188.322 793.008 177.72L612.428 -81.0655C603.436 -93.8656 589.759 -100.729 575.775 -99.3381L48.761 -47.581C31.8792 -45.9115 17.3402 -32.6475 11.7191 -13.6328L-103.546 375.38C-105.912 383.441 -106.578 391.906 -105.5 400.238L-66.5042 695.662L774.802 696.311Z" fill="#5B84C4"/>
<path d="M-4.83848 315.739L-15.7659 293.107C-16.6576 291.254 -17.0653 289.206 -16.9509 287.153C-16.8365 285.099 -16.2037 283.109 -15.1118 281.367C-14.0199 279.626 -12.5046 278.19 -10.7078 277.195C-8.91106 276.201 -6.89156 275.679 -4.83848 275.679C-2.7854 275.679 -0.765903 276.201 1.03089 277.195C2.82767 278.19 4.34295 279.626 5.43485 281.367C6.52674 283.109 7.15953 285.099 7.27392 287.153C7.38831 289.206 6.98056 291.254 6.08889 293.107L-4.83848 315.739Z" fill="#FFAE13"/>
<path opacity="0.3" d="M-4.83848 315.739L-15.7659 293.107C-16.6576 291.254 -17.0653 289.206 -16.9509 287.153C-16.8365 285.099 -16.2037 283.109 -15.1118 281.367C-14.0199 279.626 -12.5046 278.19 -10.7078 277.195C-8.91106 276.201 -6.89156 275.679 -4.83848 275.679C-2.7854 275.679 -0.765903 276.201 1.03089 277.195C2.82767 278.19 4.34295 279.626 5.43485 281.367C6.52674 283.109 7.15953 285.099 7.27392 287.153C7.38831 289.206 6.98056 291.254 6.08889 293.107L-4.83848 315.739Z" fill="white"/>
<path opacity="0.3" d="M-4.28277 275.762L-4.83838 315.739L6.08899 293.107C6.96959 291.302 7.38622 289.306 7.30104 287.299C7.21585 285.293 6.63154 283.339 5.60118 281.616C4.57082 279.893 3.12703 278.455 1.40095 277.432C-0.325134 276.41 -2.27885 275.836 -4.28277 275.762V275.762Z" fill="white"/>
<path d="M201.948 138.114L198.707 190.798L194.447 190.149L190.65 287.82L66.9304 287.449L64.8004 177.998L54.4287 112.514L94.434 101.105L95.8231 100.734L100.916 99.2496L122.586 117.893L145.644 98.9713L151.756 100.919C152.219 101.012 152.405 101.105 152.497 101.105H152.59L152.868 101.197L153.145 101.29L182.779 110.751C188.539 112.557 193.541 116.22 197.008 121.168C200.475 126.117 202.212 132.074 201.948 138.114V138.114Z" fill="#FFAE13"/>
<path d="M34.6114 137.093L27.3882 239.124L74.2463 220.387L84.4328 105.371L55.5401 112.328C49.8778 113.695 44.7971 116.832 41.0342 121.284C37.2713 125.737 35.0217 131.274 34.6114 137.093V137.093Z" fill="#FFAE13"/>
<path d="M119.252 122.438L111.473 245.895L122.03 257.211L131.939 245.895L126.29 121.882L122.586 119.377L119.252 122.438Z" fill="#242830"/>
<path d="M244.291 257.5C196.076 263.5 203.57 273.03 197.291 257.5L186.903 190.387L200.887 129.076L216 236L217 247L224.964 251C224.964 251 292.505 251.5 244.291 257.5Z" fill="#FFAE13"/>
<path opacity="0.2" d="M192.799 229.309L180.371 174.587C180.21 174.357 179.982 174.182 179.719 174.085C179.455 173.988 179.168 173.974 178.897 174.044C178.625 174.115 178.381 174.267 178.198 174.48C178.015 174.693 177.901 174.956 177.871 175.236L170.833 286.449L190.65 286.82L192.799 229.309Z" fill="black"/>
<path d="M151.293 196.549L156.942 188.201L158.331 179.297C158.375 179.117 158.468 178.953 158.598 178.822C158.729 178.691 158.893 178.599 159.072 178.555C159.658 178.422 160.264 178.411 160.854 178.524C161.444 178.637 162.004 178.87 162.5 179.21C162.995 179.549 163.415 179.988 163.734 180.498C164.052 181.007 164.262 181.577 164.351 182.172L166.11 192.932L185.835 191.54C186.559 191.541 187.259 191.804 187.804 192.282C188.348 192.759 188.702 193.419 188.798 194.138C188.833 194.537 188.784 194.939 188.656 195.319C188.528 195.699 188.322 196.048 188.053 196.344C187.783 196.64 187.455 196.878 187.089 197.041C186.723 197.204 186.328 197.289 185.928 197.291H186.02C186.834 197.286 187.621 197.589 188.221 198.139C188.822 198.69 189.194 199.447 189.261 200.259C189.309 200.688 189.268 201.121 189.143 201.533C189.018 201.946 188.811 202.328 188.534 202.658C188.257 202.987 187.916 203.257 187.531 203.451C187.147 203.644 186.727 203.758 186.298 203.784L184.816 203.877L186.483 203.691C187.294 203.618 188.1 203.869 188.725 204.391C189.351 204.913 189.743 205.662 189.817 206.474C189.891 207.286 189.639 208.094 189.118 208.72C188.597 209.346 187.849 209.739 187.039 209.813L185.094 209.999L187.872 209.72C188.467 209.693 189.051 209.885 189.512 210.262C189.973 210.638 190.28 211.172 190.373 211.761C190.42 212.322 190.257 212.881 189.914 213.327C189.571 213.773 189.074 214.075 188.521 214.173L154.072 219.738L140.551 223.726L144.163 197.106L151.293 196.549Z" fill="#FC9D9D"/>
<path opacity="0.2" d="M84.4326 202.671C81.512 201.117 79.02 198.865 77.1782 196.114C75.3364 193.363 74.2019 190.199 73.8756 186.903L71.0975 158.334C71.0975 158.199 71.0438 158.069 70.9483 157.974C70.8528 157.878 70.7232 157.824 70.5881 157.824C70.4531 157.824 70.3235 157.878 70.228 157.974C70.1325 158.069 70.0788 158.199 70.0788 158.334L65.4486 204.897L54.9842 206.103C54.8245 206.141 54.6847 206.237 54.5923 206.373C54.4998 206.509 54.4614 206.674 54.4846 206.837C54.5078 207 54.591 207.148 54.7177 207.252C54.8444 207.357 55.0055 207.41 55.1694 207.401L151.386 196.456L152.497 194.787L84.4326 202.671Z" fill="black"/>
<path opacity="0.15" d="M190.373 211.854L190.28 211.668C190.153 211.056 189.79 210.518 189.27 210.171C188.75 209.824 188.115 209.695 187.502 209.813L187.131 209.906L158.516 214.265L150.83 196.549H148.7L140.736 197.477L143.144 223.17C143.144 223.17 156.572 219.552 157.035 219.46L159.535 219.089C168.425 217.605 186.298 214.729 188.15 214.451C190.743 213.894 190.373 211.854 190.373 211.854Z" fill="black"/>
<g opacity="0.15">
<path opacity="0.15" d="M177.408 197.291C177.405 197.205 177.42 197.12 177.452 197.04C177.484 196.96 177.531 196.887 177.592 196.826C177.653 196.766 177.725 196.718 177.805 196.686C177.885 196.654 177.97 196.639 178.056 196.642L188.428 195.807C188.209 196.265 187.868 196.654 187.444 196.932C187.019 197.21 186.527 197.366 186.02 197.384H185.928L178.149 198.033C177.778 197.941 177.408 197.662 177.408 197.291Z" fill="black"/>
</g>
<g opacity="0.15">
<path opacity="0.15" d="M177.871 204.248C177.858 204.078 177.907 203.909 178.009 203.772C178.112 203.636 178.26 203.541 178.426 203.506L188.891 202.114C188.692 202.576 188.371 202.976 187.963 203.27C187.556 203.564 187.076 203.741 186.576 203.784H186.483L178.519 204.897C178.356 204.872 178.206 204.795 178.089 204.678C177.973 204.562 177.896 204.411 177.871 204.248V204.248Z" fill="black"/>
</g>
<path opacity="0.2" d="M134.347 127.447L134.162 127.261L134.347 127.447L123.049 124.386L112.214 127.54L94.4341 101.197L95.8232 100.826L113.325 126.705L122.679 119.377L133.235 126.705L151.942 101.012C152.405 101.105 152.59 101.197 152.682 101.197H152.775L153.053 101.29L153.331 101.383L134.347 127.447Z" fill="black"/>
<path d="M30.629 211.019L144.163 197.198L148.052 221.5L40.4451 252.944C38.7909 253.428 37.043 253.496 35.3565 253.141C33.6701 252.785 32.0973 252.019 30.7779 250.908C29.4585 249.798 28.4333 248.378 27.7934 246.775C27.1536 245.172 26.9188 243.436 27.11 241.721L30.629 211.019Z" fill="#FFAE13"/>
<path opacity="0.2" d="M147.404 217.326L45.7238 241.721C43.5991 242.177 41.3973 242.131 39.2936 241.586C37.1898 241.04 35.2422 240.011 33.6057 238.578C31.9692 237.146 30.6889 235.352 29.8667 233.337C29.0445 231.322 28.7031 229.143 28.8697 226.973L29.0549 224.932L27.2028 241.721C27.0116 243.436 27.2464 245.172 27.8862 246.775C28.5261 248.378 29.5513 249.798 30.8707 250.908C32.1901 252.019 33.7628 252.785 35.4493 253.141C37.1358 253.496 38.8837 253.428 40.5379 252.944L83.6917 240.237L148.145 221.407L147.404 217.326Z" fill="black"/>
<path d="M145.922 197.106L150.645 220.944L155.275 219.831L150.83 196.549L145.922 197.106Z" fill="#242830"/>
<path d="M150.83 214.08C151.874 214.08 152.895 213.77 153.763 213.189C154.631 212.608 155.307 211.782 155.707 210.816C156.106 209.85 156.211 208.787 156.007 207.761C155.804 206.736 155.301 205.794 154.563 205.054C153.824 204.315 152.884 203.811 151.86 203.607C150.836 203.403 149.775 203.508 148.81 203.908C147.846 204.308 147.021 204.986 146.441 205.855C145.861 206.725 145.552 207.747 145.552 208.793C145.552 210.195 146.108 211.54 147.098 212.531C148.088 213.523 149.43 214.08 150.83 214.08Z" fill="#242830"/>
<path opacity="0.2" d="M154.164 214.08L151.941 202.671C151.546 202.59 151.141 202.559 150.738 202.578C149.436 202.58 148.169 203.003 147.126 203.784L149.349 215.007C149.804 215.115 150.27 215.177 150.738 215.193C151.941 215.048 153.105 214.67 154.164 214.08V214.08Z" fill="black"/>
<path d="M150.83 213.431C151.746 213.431 152.641 213.159 153.403 212.649C154.164 212.139 154.758 211.415 155.108 210.568C155.459 209.72 155.55 208.788 155.372 207.888C155.193 206.988 154.752 206.162 154.105 205.513C153.457 204.865 152.632 204.423 151.734 204.244C150.836 204.065 149.905 204.157 149.059 204.508C148.212 204.859 147.489 205.454 146.981 206.216C146.472 206.979 146.2 207.876 146.2 208.793C146.2 210.023 146.688 211.202 147.556 212.072C148.425 212.942 149.602 213.431 150.83 213.431Z" fill="white"/>
<path d="M122.586 119.377L145.83 98.9714L142.403 52.7795H103.88L101.009 99.3424L122.586 119.377Z" fill="#FC9D9D"/>
<path d="M147.589 36.5475C147.589 36.5475 152.405 89.4176 123.419 89.7886C95.0821 90.1596 97.3972 37.1967 97.3972 37.1967L97.4898 21.985L134.161 17.7183L143.051 23.0053L147.589 36.5475Z" fill="#FC9D9D"/>
<path d="M141.477 24.3039C141.477 24.3039 151.015 18.7386 154.72 29.4054C157.868 38.4025 151.108 47.678 151.108 47.678L145.829 46.8432C143.607 46.6577 142.125 45.5446 142.033 43.3185L141.477 24.3039Z" fill="#21252B"/>
<path d="M148.422 18.3676C148.608 28.3851 139.903 30.5184 136.476 30.6112L107.769 31.3532C106.658 31.3845 105.602 31.8469 104.824 32.6429C104.047 33.439 103.608 34.5064 103.602 35.6199V44.7099C103.601 45.318 103.372 45.9037 102.961 46.3505C102.549 46.7973 101.984 47.0726 101.379 47.1215L99.6197 47.2143L97.4898 49.5331C86.4698 46.194 83.6916 14.1009 104.62 8.9066C105.745 8.6276 106.802 8.12181 107.726 7.42011C108.649 6.71841 109.42 5.83554 109.991 4.8254C113.325 -1.20365 125.734 -2.1312 131.476 5.19641C132.024 5.9359 132.736 6.53838 133.555 6.95673C134.374 7.37509 135.279 7.598 136.199 7.60804C143.792 7.8863 148.33 12.8951 148.422 18.3676Z" fill="#21252B"/>
<path d="M99.4344 50.3679C99.3937 49.5243 99.1295 48.7067 98.6689 47.9992C98.2084 47.2917 97.5681 46.7197 96.8139 46.342C96.0597 45.9643 95.2187 45.7944 94.3773 45.8499C93.5358 45.9054 92.7243 46.1842 92.026 46.6577L91.9335 46.7505C86.7476 50.7389 89.1553 64.2811 99.9901 63.7246L99.4344 50.3679Z" fill="#FC9D9D"/>
<path d="M153.701 46.4722L153.608 46.3795C152.91 45.9046 152.096 45.6277 151.253 45.5781C150.41 45.5285 149.569 45.708 148.819 46.0976C148.07 46.4873 147.439 47.0726 146.994 47.7916C146.55 48.5107 146.307 49.3367 146.293 50.1824L146.107 62.9826C157.035 63.2608 158.887 50.2752 153.701 46.4722Z" fill="#FC9D9D"/>
<path d="M100.731 52.1303C100.725 52.2947 100.687 52.4564 100.618 52.6061C100.55 52.7557 100.453 52.8904 100.332 53.0024C100.212 53.1144 100.071 53.2015 99.9167 53.2588C99.7626 53.316 99.5988 53.3423 99.4346 53.3361C99.1204 53.3561 98.8091 53.2649 98.5552 53.0784C98.3013 52.8919 98.1209 52.622 98.0455 52.3158L97.3047 43.6896L100.824 44.0606L100.731 52.1303Z" fill="#21252B"/>
<path d="M148.515 51.3882C148.509 51.5527 148.471 51.7144 148.403 51.864C148.334 52.0137 148.237 52.1483 148.117 52.2603C147.996 52.3723 147.855 52.4594 147.701 52.5167C147.547 52.5739 147.383 52.6002 147.219 52.594C146.905 52.6141 146.593 52.5229 146.339 52.3364C146.085 52.1499 145.905 51.8799 145.83 51.5737L145.089 42.9475L148.608 43.3186L148.515 51.3882Z" fill="#21252B"/>
<path d="M113.603 58.6231C114.098 58.6231 114.581 58.4762 114.992 58.201C115.404 57.9258 115.724 57.5347 115.913 57.0771C116.103 56.6195 116.152 56.1159 116.056 55.6301C115.959 55.1443 115.721 54.6981 115.371 54.3478C115.022 53.9976 114.576 53.7591 114.091 53.6625C113.606 53.5658 113.103 53.6154 112.647 53.805C112.19 53.9945 111.799 54.3155 111.524 54.7273C111.25 55.1392 111.103 55.6234 111.103 56.1187C111.103 56.7829 111.366 57.4199 111.835 57.8896C112.304 58.3592 112.94 58.6231 113.603 58.6231Z" fill="#21252B"/>
<path d="M112.399 56.3969C112.509 56.3969 112.617 56.3643 112.708 56.3032C112.799 56.242 112.871 56.1551 112.913 56.0534C112.955 55.9517 112.966 55.8398 112.944 55.7319C112.923 55.6239 112.87 55.5247 112.792 55.4469C112.715 55.3691 112.616 55.3161 112.508 55.2946C112.4 55.2731 112.288 55.2841 112.187 55.3263C112.085 55.3684 111.998 55.4397 111.937 55.5312C111.876 55.6227 111.844 55.7303 111.844 55.8404C111.844 55.988 111.902 56.1296 112.006 56.2339C112.111 56.3383 112.252 56.3969 112.399 56.3969V56.3969Z" fill="white"/>
<path d="M132.957 58.3448C133.452 58.3448 133.935 58.1979 134.346 57.9227C134.758 57.6476 135.078 57.2564 135.267 56.7988C135.457 56.3412 135.506 55.8377 135.41 55.3519C135.313 54.8661 135.075 54.4198 134.725 54.0696C134.376 53.7193 133.93 53.4808 133.445 53.3842C132.96 53.2876 132.457 53.3371 132.001 53.5267C131.544 53.7162 131.153 54.0372 130.878 54.4491C130.604 54.8609 130.457 55.3451 130.457 55.8404C130.457 56.5046 130.72 57.1416 131.189 57.6113C131.658 58.0809 132.294 58.3448 132.957 58.3448Z" fill="#21252B"/>
<path d="M131.754 56.1187C131.864 56.1187 131.971 56.0861 132.063 56.0249C132.154 55.9638 132.225 55.8769 132.267 55.7752C132.309 55.6735 132.32 55.5616 132.299 55.4536C132.277 55.3456 132.224 55.2465 132.147 55.1687C132.069 55.0908 131.97 55.0378 131.862 55.0163C131.754 54.9949 131.643 55.0059 131.541 55.048C131.44 55.0901 131.353 55.1615 131.292 55.253C131.231 55.3445 131.198 55.4521 131.198 55.5622C131.198 55.6353 131.213 55.7076 131.241 55.7752C131.268 55.8427 131.309 55.904 131.361 55.9557C131.413 56.0074 131.474 56.0484 131.541 56.0764C131.609 56.1043 131.681 56.1187 131.754 56.1187V56.1187Z" fill="white"/>
<g opacity="0.3">
<path opacity="0.3" d="M123.789 68.6406H125.827C126.023 68.6406 126.212 68.5624 126.351 68.4233C126.49 68.2841 126.568 68.0953 126.568 67.8985C126.568 67.7017 126.49 67.513 126.351 67.3738C126.212 67.2347 126.023 67.1565 125.827 67.1565H123.789C123.594 67.159 123.4 67.1223 123.22 67.0486C123.039 66.9749 122.874 66.8657 122.736 66.7274C122.598 66.5891 122.489 66.4245 122.416 66.2433C122.342 66.0621 122.305 65.868 122.308 65.6724C122.3 65.2678 122.451 64.8763 122.728 64.5816C123.005 64.2869 123.386 64.1125 123.789 64.0956C123.986 64.0956 124.174 64.0174 124.313 63.8783C124.452 63.7391 124.53 63.5504 124.53 63.3536C124.53 63.1568 124.452 62.968 124.313 62.8289C124.174 62.6897 123.986 62.6115 123.789 62.6115C123.005 62.6164 122.254 62.9307 121.699 63.4863C121.145 64.0419 120.831 64.794 120.826 65.5797C120.804 65.9795 120.865 66.3796 121.005 66.7546C121.145 67.1297 121.361 67.4718 121.639 67.7592C121.918 68.0467 122.252 68.2734 122.622 68.4251C122.992 68.5768 123.39 68.6501 123.789 68.6406V68.6406Z" fill="black"/>
</g>
<path d="M117.4 72.258L129.716 72.0725C129.793 72.0748 129.869 72.0948 129.937 72.1312C130.005 72.1675 130.064 72.2192 130.109 72.2821C130.153 72.3449 130.183 72.4173 130.195 72.4936C130.208 72.5699 130.202 72.648 130.179 72.7218C129.72 74.0866 128.851 75.2763 127.692 76.1288C126.533 76.9812 125.139 77.4549 123.702 77.4853C122.264 77.5158 120.852 77.1014 119.658 76.2988C118.464 75.4961 117.546 74.3442 117.029 73V72.9073C116.995 72.8413 116.978 72.7677 116.98 72.6934C116.981 72.619 117.001 72.5462 117.038 72.4817C117.075 72.4171 117.127 72.3628 117.19 72.3238C117.254 72.2847 117.326 72.2621 117.4 72.258V72.258Z" fill="white"/>
<g opacity="0.3">
<path opacity="0.3" d="M96.2862 57.139C96.1031 57.1469 95.9239 57.0839 95.786 56.963C95.648 56.8421 95.5619 56.6726 95.5454 56.4897L95.4528 54.9129C95.3601 53.2433 94.9897 52.1303 94.2489 51.481C93.9161 51.1869 93.4888 51.0223 93.045 51.0172C92.8619 51.0251 92.6828 50.962 92.5448 50.8411C92.4069 50.7202 92.3207 50.5508 92.3042 50.3679C92.3145 50.1792 92.382 49.9981 92.4979 49.8489C92.6137 49.6997 92.7723 49.5895 92.9524 49.5331C93.7588 49.5004 94.5494 49.7644 95.175 50.2751C96.1936 51.1099 96.7492 52.6868 96.8418 54.7274L96.9344 56.3042C97.027 56.768 96.7492 57.0462 96.2862 57.139V57.139Z" fill="black"/>
</g>
<g opacity="0.3">
<path opacity="0.3" d="M149.719 56.397C149.902 56.4049 150.081 56.3418 150.219 56.2209C150.357 56.1 150.444 55.9305 150.46 55.7477L150.553 54.1709C150.553 52.5013 150.923 51.2955 151.571 50.7389C151.709 50.582 151.881 50.4587 152.073 50.3783C152.266 50.2979 152.474 50.2626 152.682 50.2752C152.774 50.2813 152.865 50.2693 152.952 50.2399C153.038 50.2106 153.118 50.1645 153.187 50.1042C153.256 50.0439 153.312 49.9706 153.353 49.8886C153.393 49.8065 153.417 49.7173 153.423 49.6259C153.429 49.5345 153.417 49.4429 153.388 49.3561C153.359 49.2694 153.313 49.1893 153.253 49.1204C153.192 49.0515 153.119 48.9951 153.037 48.9546C152.955 48.914 152.866 48.8899 152.775 48.8838C151.953 48.857 151.154 49.1571 150.553 49.7186C149.534 50.6462 148.978 52.1303 148.978 54.2636L148.886 55.8404C148.976 55.9881 149.098 56.1143 149.241 56.2104C149.385 56.3065 149.548 56.3702 149.719 56.397V56.397Z" fill="black"/>
</g>
<path opacity="0.15" d="M143.885 72.7218L143.978 72.4435C140.829 81.4407 134.902 88.6756 125.457 89.6959H125.549C124.873 89.7731 124.192 89.8041 123.512 89.7887C115.918 89.8814 109.899 85.9857 105.639 78.2871C105.6 78.2013 105.545 78.1245 105.475 78.0613C105.405 77.9981 105.323 77.95 105.234 77.9198C105.145 77.8897 105.051 77.8782 104.957 77.8861C104.864 77.894 104.773 77.9211 104.69 77.9657C104.607 78.0104 104.535 78.0715 104.476 78.1455C104.418 78.2194 104.376 78.3046 104.352 78.3956C104.328 78.4867 104.323 78.5816 104.338 78.6746C104.352 78.7677 104.385 78.8567 104.435 78.9363C108.973 87.0988 115.363 91.18 123.512 91.0872C125.198 91.0659 126.877 90.848 128.513 90.4379C133.513 91.4583 139.255 90.5307 144.904 86.9132L143.885 72.7218Z" fill="black"/>
<path d="M151.016 209.906L148.145 208.978L148.238 208.515L150.738 209.349L152.497 206.381L152.96 206.659L151.016 209.906Z" fill="#242830"/>
<rect x="196" y="66" width="405" height="709" fill="#EBEEFF"/>
</g>
</g>
<path d="M147.589 36.5475C147.589 36.5475 152.405 89.4176 123.419 89.7886C95.0821 90.1597 97.3972 37.1967 97.3972 37.1967L97.4898 21.985L134.161 17.7183L143.051 23.0053L147.589 36.5475Z" fill="#FC9D9D"/>
<path d="M141.477 24.3039C141.477 24.3039 151.015 18.7386 154.72 29.4054C157.868 38.4026 151.108 47.678 151.108 47.678L145.829 46.8432C143.607 46.6577 142.125 45.5447 142.033 43.3185L141.477 24.3039Z" fill="#21252B"/>
<path d="M148.422 18.3676C148.608 28.3851 139.903 30.5185 136.476 30.6112L107.769 31.3532C106.658 31.3845 105.602 31.8469 104.824 32.6429C104.047 33.439 103.608 34.5064 103.602 35.62V44.7099C103.601 45.318 103.372 45.9037 102.961 46.3505C102.549 46.7974 101.984 47.0726 101.379 47.1215L99.6197 47.2143L97.4898 49.5332C86.4698 46.194 83.6916 14.1009 104.62 8.90661C105.745 8.62762 106.802 8.12183 107.726 7.42013C108.649 6.71843 109.42 5.83556 109.991 4.82541C113.325 -1.20364 125.734 -2.13119 131.476 5.19643C132.024 5.93592 132.736 6.53839 133.555 6.95675C134.374 7.37511 135.279 7.59801 136.199 7.60805C143.792 7.88632 148.33 12.8951 148.422 18.3676Z" fill="#21252B"/>
<path d="M99.4344 50.3679C99.3937 49.5243 99.1295 48.7068 98.6689 47.9992C98.2084 47.2917 97.5681 46.7197 96.8139 46.342C96.0597 45.9643 95.2187 45.7944 94.3773 45.8499C93.5358 45.9054 92.7243 46.1842 92.026 46.6577L91.9335 46.7505C86.7476 50.7389 89.1553 64.2811 99.9901 63.7246L99.4344 50.3679Z" fill="#FC9D9D"/>
<path d="M153.701 46.4722L153.608 46.3795C152.91 45.9046 152.096 45.6277 151.253 45.5781C150.41 45.5285 149.569 45.708 148.819 46.0977C148.07 46.4873 147.439 47.0726 146.994 47.7916C146.55 48.5107 146.307 49.3367 146.293 50.1824L146.107 62.9826C157.035 63.2609 158.887 50.2752 153.701 46.4722Z" fill="#FC9D9D"/>
<path d="M100.731 52.1303C100.725 52.2947 100.687 52.4564 100.618 52.6061C100.55 52.7557 100.453 52.8904 100.332 53.0024C100.212 53.1144 100.071 53.2015 99.9167 53.2588C99.7626 53.316 99.5988 53.3423 99.4346 53.3361C99.1204 53.3561 98.8091 53.2649 98.5552 53.0784C98.3013 52.8919 98.1209 52.622 98.0455 52.3158L97.3047 43.6896L100.824 44.0606L100.731 52.1303Z" fill="#21252B"/>
<path d="M148.515 51.3882C148.509 51.5527 148.471 51.7144 148.403 51.864C148.334 52.0137 148.237 52.1483 148.117 52.2603C147.996 52.3723 147.855 52.4594 147.701 52.5167C147.547 52.574 147.383 52.6002 147.219 52.594C146.905 52.6141 146.593 52.5229 146.339 52.3364C146.085 52.1499 145.905 51.8799 145.83 51.5737L145.089 42.9476L148.608 43.3186L148.515 51.3882Z" fill="#21252B"/>
<path d="M113.603 58.6231C114.098 58.6231 114.581 58.4762 114.992 58.201C115.404 57.9259 115.724 57.5347 115.913 57.0771C116.103 56.6195 116.152 56.1159 116.056 55.6301C115.959 55.1443 115.721 54.6981 115.371 54.3479C115.022 53.9976 114.576 53.7591 114.091 53.6625C113.606 53.5658 113.103 53.6154 112.647 53.805C112.19 53.9945 111.799 54.3155 111.524 54.7274C111.25 55.1392 111.103 55.6234 111.103 56.1187C111.103 56.7829 111.366 57.4199 111.835 57.8896C112.304 58.3592 112.94 58.6231 113.603 58.6231Z" fill="#21252B"/>
<path d="M112.399 56.397C112.509 56.397 112.617 56.3643 112.708 56.3032C112.799 56.242 112.871 56.1551 112.913 56.0534C112.955 55.9517 112.966 55.8398 112.944 55.7319C112.923 55.6239 112.87 55.5247 112.792 55.4469C112.715 55.3691 112.616 55.3161 112.508 55.2946C112.4 55.2731 112.288 55.2842 112.187 55.3263C112.085 55.3684 111.998 55.4397 111.937 55.5312C111.876 55.6228 111.844 55.7304 111.844 55.8404C111.844 55.988 111.902 56.1296 112.006 56.2339C112.111 56.3383 112.252 56.397 112.399 56.397V56.397Z" fill="white"/>
<path d="M132.957 58.3448C133.452 58.3448 133.935 58.1979 134.346 57.9228C134.758 57.6476 135.078 57.2565 135.267 56.7988C135.457 56.3412 135.506 55.8377 135.41 55.3519C135.313 54.8661 135.075 54.4198 134.725 54.0696C134.376 53.7194 133.93 53.4808 133.445 53.3842C132.96 53.2876 132.457 53.3372 132.001 53.5267C131.544 53.7163 131.153 54.0373 130.878 54.4491C130.604 54.8609 130.457 55.3451 130.457 55.8405C130.457 56.5047 130.72 57.1416 131.189 57.6113C131.658 58.081 132.294 58.3448 132.957 58.3448Z" fill="#21252B"/>
<path d="M131.754 56.1187C131.864 56.1187 131.971 56.0861 132.063 56.0249C132.154 55.9638 132.225 55.8769 132.267 55.7752C132.309 55.6735 132.32 55.5616 132.299 55.4536C132.277 55.3457 132.224 55.2465 132.147 55.1687C132.069 55.0908 131.97 55.0378 131.862 55.0164C131.754 54.9949 131.643 55.0059 131.541 55.048C131.44 55.0902 131.353 55.1615 131.292 55.253C131.231 55.3445 131.198 55.4521 131.198 55.5622C131.198 55.6353 131.213 55.7077 131.241 55.7752C131.268 55.8427 131.309 55.904 131.361 55.9557C131.413 56.0074 131.474 56.0484 131.541 56.0764C131.609 56.1043 131.681 56.1187 131.754 56.1187V56.1187Z" fill="white"/>
<g opacity="0.3">
<path opacity="0.3" d="M123.789 68.6406H125.827C126.023 68.6406 126.212 68.5624 126.351 68.4233C126.49 68.2841 126.568 68.0954 126.568 67.8986C126.568 67.7018 126.49 67.513 126.351 67.3739C126.212 67.2347 126.023 67.1565 125.827 67.1565H123.789C123.594 67.159 123.4 67.1223 123.22 67.0486C123.039 66.9749 122.874 66.8657 122.736 66.7274C122.598 66.5891 122.489 66.4245 122.416 66.2433C122.342 66.0621 122.305 65.868 122.308 65.6724C122.3 65.2678 122.451 64.8763 122.728 64.5816C123.005 64.2869 123.386 64.1125 123.789 64.0956C123.986 64.0956 124.174 64.0174 124.313 63.8783C124.452 63.7391 124.53 63.5504 124.53 63.3536C124.53 63.1568 124.452 62.9681 124.313 62.8289C124.174 62.6897 123.986 62.6116 123.789 62.6116C123.005 62.6164 122.254 62.9307 121.699 63.4863C121.145 64.0419 120.831 64.794 120.826 65.5797C120.804 65.9795 120.865 66.3796 121.005 66.7547C121.145 67.1298 121.361 67.4718 121.639 67.7593C121.918 68.0467 122.252 68.2734 122.622 68.4251C122.992 68.5768 123.39 68.6502 123.789 68.6406V68.6406Z" fill="black"/>
</g>
<path d="M117.4 72.258L129.716 72.0725C129.793 72.0748 129.869 72.0949 129.937 72.1312C130.005 72.1676 130.064 72.2192 130.109 72.2821C130.153 72.345 130.183 72.4174 130.195 72.4936C130.208 72.5699 130.202 72.648 130.179 72.7218C129.72 74.0866 128.851 75.2763 127.692 76.1288C126.533 76.9812 125.139 77.4549 123.702 77.4854C122.264 77.5158 120.852 77.1014 119.658 76.2988C118.464 75.4961 117.546 74.3442 117.029 73.0001V72.9073C116.995 72.8413 116.978 72.7677 116.98 72.6934C116.981 72.619 117.001 72.5463 117.038 72.4817C117.075 72.4171 117.127 72.3628 117.19 72.3238C117.254 72.2847 117.326 72.2621 117.4 72.258V72.258Z" fill="white"/>
<g opacity="0.3">
<path opacity="0.3" d="M96.2862 57.139C96.1031 57.1469 95.9239 57.0839 95.786 56.963C95.648 56.8421 95.5619 56.6726 95.5454 56.4898L95.4528 54.9129C95.3601 53.2433 94.9897 52.1303 94.2489 51.481C93.9161 51.1869 93.4888 51.0223 93.045 51.0172C92.8619 51.0251 92.6828 50.9621 92.5448 50.8412C92.4069 50.7202 92.3207 50.5508 92.3042 50.3679C92.3145 50.1792 92.382 49.9981 92.4979 49.8489C92.6137 49.6997 92.7723 49.5896 92.9524 49.5331C93.7588 49.5005 94.5494 49.7644 95.175 50.2752C96.1936 51.11 96.7492 52.6868 96.8418 54.7274L96.9344 56.3042C97.027 56.768 96.7492 57.0463 96.2862 57.139V57.139Z" fill="black"/>
</g>
<g opacity="0.3">
<path opacity="0.3" d="M149.719 56.397C149.902 56.4049 150.081 56.3418 150.219 56.2209C150.357 56.1 150.444 55.9305 150.46 55.7477L150.553 54.1709C150.553 52.5013 150.923 51.2955 151.571 50.7389C151.709 50.582 151.881 50.4587 152.073 50.3783C152.266 50.298 152.474 50.2627 152.682 50.2752C152.774 50.2813 152.865 50.2693 152.952 50.24C153.038 50.2106 153.118 50.1645 153.187 50.1042C153.256 50.0439 153.312 49.9707 153.353 49.8886C153.393 49.8065 153.417 49.7173 153.423 49.6259C153.429 49.5346 153.417 49.4429 153.388 49.3562C153.359 49.2694 153.313 49.1893 153.253 49.1204C153.192 49.0515 153.119 48.9952 153.037 48.9546C152.955 48.914 152.866 48.8899 152.775 48.8839C151.953 48.857 151.154 49.1572 150.553 49.7186C149.534 50.6462 148.978 52.1303 148.978 54.2636L148.886 55.8404C148.976 55.9881 149.098 56.1144 149.241 56.2104C149.385 56.3065 149.548 56.3702 149.719 56.397V56.397Z" fill="black"/>
</g>
<defs>
<clipPath id="clip0_624_478">
<rect width="1073.61" height="797.31" fill="white" transform="translate(-106 -99.5143)"/>
</clipPath>
</defs>
</svg>
